<svg xmlns="http://www.w3.org/2000/svg" viewBox="0 0 1600 900" width="1600" height="900" role="img" aria-label="전화 상태 8 곱하기 동작 10 은 80조합을 타입으로 전부 열거한 매트릭스">
  <style>
    .t    { font-family: "IBM Plex Sans","Pretendard","Malgun Gothic","Apple SD Gothic Neo",sans-serif; }
    .eb   { font-size: 20px; letter-spacing: .14em; fill: #8593a5; }
    .h1   { font-size: 46px; font-weight: 600; fill: #16202e; letter-spacing: -.01em; }
    .big  { font-size: 152px; font-weight: 600; fill: #1c6b5a; letter-spacing: -.03em; }
    .unit { font-size: 34px; font-weight: 600; fill: #1c6b5a; }
    .sub  { font-size: 22px; fill: #4f5b6d; }
    .mono { font-family: "IBM Plex Mono","Consolas",monospace; font-size: 21px; fill: #16202e; }
    .cmt  { font-family: "IBM Plex Mono","Consolas",monospace; font-size: 18px; fill: #8593a5; }
    .axis { font-size: 19px; font-weight: 600; fill: #4f5b6d; letter-spacing: .04em; }
    .tick { font-family: "IBM Plex Mono","Consolas",monospace; font-size: 15px; fill: #a6b1c0; }
    .res  { font-size: 25px; font-weight: 600; fill: #16202e; }
    .dim  { font-size: 17px; fill: #8593a5; }
  </style>

  <rect width="1600" height="900" fill="#f6f7f9"/>

  <g class="t">
    <text x="90" y="98" class="eb">공공기관 AI 컨택센터 SI · 상태 모델링</text>
    <text x="90" y="158" class="h1">조건문 대신 타입으로 전부 열거</text>
    <line x1="90" y1="196" x2="1510" y2="196" stroke="#ccd4de" stroke-width="1"/>

    <text x="90" y="384" class="big">80</text>
    <text x="286" y="384" class="unit">조합</text>
    <text x="90" y="428" class="sub">전화 상태 8개 × 동작 10개</text>

    <rect x="90" y="470" width="560" height="158" rx="4" fill="#eef1f5" stroke="#ccd4de"/>
    <text x="114" y="506" class="cmt">// enablement.ts</text>
    <text x="114" y="546" class="mono">Record&lt;CtiStatusId,</text>
    <text x="114" y="578" class="mono">       CtiButtonEnablementMap&gt;</text>
    <text x="114" y="610" class="cmt">// 빠진 조합은 컴파일 에러</text>

    <text x="740" y="252" class="axis">동작 10개</text>
    <text x="688" y="497" class="axis" text-anchor="middle" transform="rotate(-90 688 497)">전화 상태 8개</text>
    <text x="775" y="286" class="tick" text-anchor="middle">1</text>
    <text x="852" y="286" class="tick" text-anchor="middle">2</text>
    <text x="929" y="286" class="tick" text-anchor="middle">3</text>
    <text x="1006" y="286" class="tick" text-anchor="middle">4</text>
    <text x="1083" y="286" class="tick" text-anchor="middle">5</text>
    <text x="1160" y="286" class="tick" text-anchor="middle">6</text>
    <text x="1237" y="286" class="tick" text-anchor="middle">7</text>
    <text x="1314" y="286" class="tick" text-anchor="middle">8</text>
    <text x="1391" y="286" class="tick" text-anchor="middle">9</text>
    <text x="1468" y="286" class="tick" text-anchor="middle">10</text>
    <text x="726" y="328" class="tick" text-anchor="end">1</text>
    <text x="726" y="378" class="tick" text-anchor="end">2</text>
    <text x="726" y="428" class="tick" text-anchor="end">3</text>
    <text x="726" y="478" class="tick" text-anchor="end">4</text>
    <text x="726" y="528" class="tick" text-anchor="end">5</text>
    <text x="726" y="578" class="tick" text-anchor="end">6</text>
    <text x="726" y="628" class="tick" text-anchor="end">7</text>
    <text x="726" y="678" class="tick" text-anchor="end">8</text>
    <rect x="740" y="300" width="71" height="44" rx="2" fill="#e2efea"/>
    <rect x="817" y="300" width="71" height="44" rx="2" fill="#e2efea"/>
    <rect x="894" y="300" width="71" height="44" rx="2" fill="#e2efea"/>
    <rect x="971" y="300" width="71" height="44" rx="2" fill="#e2efea"/>
    <rect x="1048" y="300" width="71" height="44" rx="2" fill="#e2efea"/>
    <rect x="1125" y="300" width="71" height="44" rx="2" fill="#e2efea"/>
    <rect x="1202" y="300" width="71" height="44" rx="2" fill="#e2efea"/>
    <rect x="1279" y="300" width="71" height="44" rx="2" fill="#e2efea"/>
    <rect x="1356" y="300" width="71" height="44" rx="2" fill="#e2efea"/>
    <rect x="1433" y="300" width="71" height="44" rx="2" fill="#e2efea"/>
    <rect x="740" y="350" width="71" height="44" rx="2" fill="#e2efea"/>
    <rect x="817" y="350" width="71" height="44" rx="2" fill="#e2efea"/>
    <rect x="894" y="350" width="71" height="44" rx="2" fill="#e2efea"/>
    <rect x="971" y="350" width="71" height="44" rx="2" fill="#e2efea"/>
    <rect x="1048" y="350" width="71" height="44" rx="2" fill="#e2efea"/>
    <rect x="1125" y="350" width="71" height="44" rx="2" fill="#e2efea"/>
    <rect x="1202" y="350" width="71" height="44" rx="2" fill="#e2efea"/>
    <rect x="1279" y="350" width="71" height="44" rx="2" fill="#e2efea"/>
    <rect x="1356" y="350" width="71" height="44" rx="2" fill="#e2efea"/>
    <rect x="1433" y="350" width="71" height="44" rx="2" fill="#e2efea"/>
    <rect x="740" y="400" width="71" height="44" rx="2" fill="#e2efea"/>
    <rect x="817" y="400" width="71" height="44" rx="2" fill="#e2efea"/>
    <rect x="894" y="400" width="71" height="44" rx="2" fill="#e2efea"/>
    <rect x="971" y="400" width="71" height="44" rx="2" fill="#e2efea"/>
    <rect x="1048" y="400" width="71" height="44" rx="2" fill="#e2efea"/>
    <rect x="1125" y="400" width="71" height="44" rx="2" fill="#e2efea"/>
    <rect x="1202" y="400" width="71" height="44" rx="2" fill="#e2efea"/>
    <rect x="1279" y="400" width="71" height="44" rx="2" fill="#e2efea"/>
    <rect x="1356" y="400" width="71" height="44" rx="2" fill="#e2efea"/>
    <rect x="1433" y="400" width="71" height="44" rx="2" fill="#e2efea"/>
    <rect x="740" y="450" width="71" height="44" rx="2" fill="#e2efea"/>
    <rect x="817" y="450" width="71" height="44" rx="2" fill="#e2efea"/>
    <rect x="894" y="450" width="71" height="44" rx="2" fill="#e2efea"/>
    <rect x="971" y="450" width="71" height="44" rx="2" fill="#e2efea"/>
    <rect x="1048" y="450" width="71" height="44" rx="2" fill="#e2efea"/>
    <rect x="1125" y="450" width="71" height="44" rx="2" fill="#e2efea"/>
    <rect x="1202" y="450" width="71" height="44" rx="2" fill="#e2efea"/>
    <rect x="1279" y="450" width="71" height="44" rx="2" fill="#e2efea"/>
    <rect x="1356" y="450" width="71" height="44" rx="2" fill="#e2efea"/>
    <rect x="1433" y="450" width="71" height="44" rx="2" fill="#e2efea"/>
    <rect x="740" y="500" width="71" height="44" rx="2" fill="#e2efea"/>
    <rect x="817" y="500" width="71" height="44" rx="2" fill="#e2efea"/>
    <rect x="894" y="500" width="71" height="44" rx="2" fill="#e2efea"/>
    <rect x="971" y="500" width="71" height="44" rx="2" fill="#e2efea"/>
    <rect x="1048" y="500" width="71" height="44" rx="2" fill="#e2efea"/>
    <rect x="1125" y="500" width="71" height="44" rx="2" fill="#e2efea"/>
    <rect x="1202" y="500" width="71" height="44" rx="2" fill="#e2efea"/>
    <rect x="1279" y="500" width="71" height="44" rx="2" fill="#e2efea"/>
    <rect x="1356" y="500" width="71" height="44" rx="2" fill="#e2efea"/>
    <rect x="1433" y="500" width="71" height="44" rx="2" fill="#e2efea"/>
    <rect x="740" y="550" width="71" height="44" rx="2" fill="#e2efea"/>
    <rect x="817" y="550" width="71" height="44" rx="2" fill="#e2efea"/>
    <rect x="894" y="550" width="71" height="44" rx="2" fill="#e2efea"/>
    <rect x="971" y="550" width="71" height="44" rx="2" fill="#e2efea"/>
    <rect x="1048" y="550" width="71" height="44" rx="2" fill="#e2efea"/>
    <rect x="1125" y="550" width="71" height="44" rx="2" fill="#e2efea"/>
    <rect x="1202" y="550" width="71" height="44" rx="2" fill="#e2efea"/>
    <rect x="1279" y="550" width="71" height="44" rx="2" fill="#e2efea"/>
    <rect x="1356" y="550" width="71" height="44" rx="2" fill="#e2efea"/>
    <rect x="1433" y="550" width="71" height="44" rx="2" fill="#e2efea"/>
    <rect x="740" y="600" width="71" height="44" rx="2" fill="#e2efea"/>
    <rect x="817" y="600" width="71" height="44" rx="2" fill="#e2efea"/>
    <rect x="894" y="600" width="71" height="44" rx="2" fill="#e2efea"/>
    <rect x="971" y="600" width="71" height="44" rx="2" fill="#e2efea"/>
    <rect x="1048" y="600" width="71" height="44" rx="2" fill="#e2efea"/>
    <rect x="1125" y="600" width="71" height="44" rx="2" fill="#e2efea"/>
    <rect x="1202" y="600" width="71" height="44" rx="2" fill="#e2efea"/>
    <rect x="1279" y="600" width="71" height="44" rx="2" fill="#e2efea"/>
    <rect x="1356" y="600" width="71" height="44" rx="2" fill="#e2efea"/>
    <rect x="1433" y="600" width="71" height="44" rx="2" fill="#e2efea"/>
    <rect x="740" y="650" width="71" height="44" rx="2" fill="#e2efea"/>
    <rect x="817" y="650" width="71" height="44" rx="2" fill="#e2efea"/>
    <rect x="894" y="650" width="71" height="44" rx="2" fill="#e2efea"/>
    <rect x="971" y="650" width="71" height="44" rx="2" fill="#e2efea"/>
    <rect x="1048" y="650" width="71" height="44" rx="2" fill="#e2efea"/>
    <rect x="1125" y="650" width="71" height="44" rx="2" fill="#e2efea"/>
    <rect x="1202" y="650" width="71" height="44" rx="2" fill="#e2efea"/>
    <rect x="1279" y="650" width="71" height="44" rx="2" fill="#e2efea"/>
    <rect x="1356" y="650" width="71" height="44" rx="2" fill="#e2efea"/>
    <rect x="1433" y="650" width="71" height="44" rx="2" fill="#e2efea"/>

    <rect x="90" y="694" width="4" height="70" fill="#1c6b5a"/>
    <text x="116" y="724" class="res">조건문으로 짜면 빠진 조합이 있는지 알 수 없습니다 — 타입으로 강제하면 컴파일러가 찾아줍니다.</text>
    <text x="116" y="756" class="sub" font-size="19">세어서 나온 수가 아니라, 타입 정의를 열어 그대로 보여줄 수 있는 수입니다.</text>

    <line x1="90" y1="800" x2="1510" y2="800" stroke="#ccd4de" stroke-width="1"/>
    <text x="90" y="838" class="dim">11인 팀 · 641 / 2,356 커밋 (11인 중 2위) · 담당 앱 368 / 961 (6인 중 1위) · 상태·동작 개별 명칭은 고객사 정보라 번호로 표기</text>
  </g>
</svg>
